<?xml version="1.0" encoding="utf-8"?>
<!-- Generator: Adobe Illustrator 21.0.0, SVG Export Plug-In . SVG Version: 6.00 Build 0)  -->
<svg version="1.1" id="Layer_1" xmlns="http://www.w3.org/2000/svg" xmlns:xlink="http://www.w3.org/1999/xlink" x="0px" y="0px"
	 viewBox="0 0 200 200" style="enable-background:new 0 0 200 200;" xml:space="preserve">
<style type="text/css">
	.st0{fill:#C8C8C8;}
</style>
<path class="st0" d="M71.2,102.2l-8.7,8.3l25.6,25.6l48.2-48.2l-8.7-8.7l-39.6,39.9L71.2,102.2z M43.7,106.7
	c0-15.6,5.5-28.8,16.4-39.7C71,56,84.2,50.5,99.8,50.5c15.6,0,28.9,5.5,39.9,16.4c11,10.9,16.6,24.2,16.6,39.7
	c0,15.6-5.5,28.9-16.6,39.9c-11.1,11.1-24.4,16.6-39.9,16.6c-15.6,0-28.8-5.5-39.7-16.6C49.1,135.6,43.7,122.2,43.7,106.7
	 M27.5,106.9c0,20,7.1,37,21.3,51C63,172,80,179,100,179c20,0,37-7,51-21.1c14.1-14.1,21.1-31.1,21.1-51c0-20-7-37-21.1-51.2
	C137,41.4,120,34.3,100,34.3c-20,0-37,7.1-51.2,21.3C34.6,69.8,27.5,86.9,27.5,106.9 M56.5,17.4L19.6,48.3l10.5,12.1l36.5-30.9
	L56.5,17.4z M143.5,17.4L133,29.4l36.9,31.3l10.5-12.4L143.5,17.4z"/>
</svg>
